<?xml version="1.0" standalone="no"?>
<!DOCTYPE svg PUBLIC "-//W3C//DTD SVG 20010904//EN"
 "http://www.w3.org/TR/2001/REC-SVG-20010904/DTD/svg10.dtd">
<svg version="1.0" xmlns="http://www.w3.org/2000/svg"
 width="300.000000pt" height="300.000000pt" viewBox="0 0 300.000000 300.000000"
 preserveAspectRatio="xMidYMid meet">
<metadata>
Created by potrace 1.11, written by Peter Selinger 2001-2013
</metadata>
<g transform="translate(0.000000,300.000000) scale(0.100000,-0.100000)"
fill="#000000" stroke="none">
<path d="M389 2153 c-1 -4 -2 -114 -3 -243 l-1 -235 -140 -5 c-116 -4 -146 -8
-173 -25 -98 -58 -96 -233 3 -290 39 -23 51 -25 177 -25 l134 0 0 -246 -1
-245 425 4 c234 3 439 7 456 10 72 14 194 59 253 94 203 121 305 319 297 578
-4 113 -17 173 -56 261 l-27 61 -51 5 c-126 12 -255 121 -295 249 -3 9 -26 21
-54 29 -26 6 -57 14 -68 18 -32 9 -875 14 -876 5z"/>
<path d="M2166 2075 c-28 -26 -34 -61 -13 -87 6 -9 163 -109 347 -222 351
-215 360 -221 360 -236 0 -12 -122 -92 -435 -285 -132 -81 -250 -159 -262
-172 -13 -13 -23 -34 -23 -47 0 -28 39 -66 69 -66 26 0 715 426 747 462 65 72
52 182 -28 241 -18 14 -134 86 -258 162 -124 75 -270 165 -325 200 -125 77
-144 83 -179 50z"/>
</g>
</svg>
